<svg xmlns="http://www.w3.org/2000/svg" viewBox="0 0 265 114" class="o-svg o-svg--claim-loader || js-loader-svg" style="transform: matrix(1, 0, 0, 1, 0, 0);">
                <defs>
                    <clipPath id="svg-loader-clip">
                        <polygon id="js-loader-clip" points="0 10, 265 -60, 265 80, 0 80"></polygon>
                    </clipPath>
                </defs>
                    <g class="c-loader__text || js-loader-text" data-svg-origin="0 94.69999694824219" transform="matrix(1,0,0,1,0,0)" style="opacity: 1;">
                        <path d="M11.2,108.5H4.4l-1.8,4.1H0l7.9-17.8l7.6,17.8h-2.6L11.2,108.5z M10.3,106.2l-2.4-5.7l-2.5,5.7H10.3z"></path>
                        <path d="M21,95.9v14.4h4.7v2.4h-7.1V95.9H21z"></path>
                        <path d="M29.9,95.9l4.2,11.2l4.4-12l4.2,12L47,95.9h2.6l-7.2,17.8l-4.1-11.9l-4.3,11.9l-6.8-17.8H29.9z"></path>
                        <path d="M62.1,108.5h-6.9l-1.8,4.1h-2.6l7.9-17.8l7.6,17.8h-2.6L62.1,108.5z M61.1,106.2l-2.4-5.7l-2.5,5.7H61.1z"></path>
                        <path d="M72.7,105.4l-5.2-9.5h2.8l3.7,6.7l3.7-6.7h2.8l-5.2,9.5v7.2h-2.4V105.4z"></path>
                        <path d="M92.4,98.4l-2,1.2c-0.4-0.7-0.7-1.1-1-1.3C89,98,88.6,97.9,88,97.9c-0.7,0-1.2,0.2-1.7,0.6c-0.4,0.4-0.7,0.9-0.7,1.5c0,0.8,0.6,1.5,1.7,2l1.6,0.7c1.3,0.5,2.3,1.2,2.9,2c0.6,0.8,0.9,1.8,0.9,2.9c0,1.5-0.5,2.8-1.5,3.8c-1,1-2.2,1.5-3.7,1.5c-1.4,0-2.5-0.4-3.4-1.3c-0.9-0.9-1.5-2.1-1.7-3.6l2.4-0.6c0.1,1,0.3,1.7,0.6,2c0.5,0.7,1.2,1.1,2.2,1.1c0.8,0,1.4-0.3,1.9-0.8c0.5-0.5,0.7-1.2,0.7-2c0-0.3,0-0.6-0.1-0.9c-0.1-0.3-0.2-0.5-0.4-0.7c-0.2-0.2-0.4-0.4-0.7-0.6c-0.3-0.2-0.6-0.4-1-0.6l-1.5-0.7c-2.2-1-3.3-2.4-3.3-4.3c0-1.3,0.5-2.3,1.4-3.2c0.9-0.9,2.1-1.3,3.4-1.3C89.9,95.5,91.3,96.5,92.4,98.4z"></path>
                        <path d="M103.6,104.2c0-2.4,0.8-4.4,2.5-6.1c1.6-1.7,3.6-2.5,5.9-2.5c2.3,0,4.2,0.9,5.9,2.6c1.6,1.7,2.5,3.8,2.5,6.2c0,2.4-0.8,4.5-2.5,6.1c-1.7,1.7-3.6,2.5-6,2.5c-2.1,0-3.9-0.7-5.6-2.2C104.5,109,103.6,106.8,103.6,104.2z M106,104.2c0,1.9,0.6,3.4,1.8,4.6c1.2,1.2,2.5,1.8,4.1,1.8c1.7,0,3.1-0.6,4.3-1.8c1.2-1.2,1.7-2.7,1.7-4.5c0-1.8-0.6-3.3-1.7-4.5c-1.1-1.2-2.5-1.8-4.2-1.8c-1.7,0-3.1,0.6-4.2,1.8C106.6,100.9,106,102.4,106,104.2z"></path>
                        <path d="M124.4,112.6V94.7l11.7,12.8V95.9h2.4v17.8l-11.7-12.8v11.7H124.4z"></path>
                        <path d="M155.5,98.4v14.4h-2.4V98.4h-3.7V96h9.8v2.4H155.5z"></path>
                        <path d="M164.8,102.5h6.9V96h2.4v16.8h-2.4v-7.8h-6.9v7.8h-2.4V96h2.4V102.5z"></path>
                        <path d="M187.9,98.4h-6.4v4h6.2v2.4h-6.2v5.6h6.4v2.4H179V96h8.8V98.4z"></path>
                        <path d="M198.7,112.7l3.4-18l5.5,13l5.7-13l3,18h-2.5l-1.5-10.1l-4.7,10.9l-4.6-10.9l-1.7,10.1H198.7z"></path>
                        <path d="M219.9,104.3c0-2.4,0.8-4.4,2.5-6.1c1.6-1.7,3.6-2.5,5.9-2.5c2.3,0,4.2,0.9,5.9,2.6c1.6,1.7,2.5,3.8,2.5,6.2c0,2.4-0.8,4.5-2.5,6.1c-1.7,1.7-3.6,2.5-6,2.5c-2.1,0-3.9-0.7-5.6-2.2C220.8,109.1,219.9,107,219.9,104.3z M222.3,104.3c0,1.9,0.6,3.4,1.8,4.6c1.2,1.2,2.5,1.8,4.1,1.8c1.7,0,3.1-0.6,4.3-1.8c1.2-1.2,1.7-2.7,1.7-4.5c0-1.8-0.6-3.3-1.7-4.5c-1.1-1.2-2.5-1.8-4.2-1.8c-1.7,0-3.1,0.6-4.2,1.8C222.9,101.1,222.3,102.6,222.3,104.3z"></path>
                        <path d="M241.5,96l4.4,11.6l4.5-11.6h2.6l-7.2,18l-7-18H241.5z"></path>
                        <path d="M265,98.4h-6.4v4h6.2v2.4h-6.2v5.6h6.4v2.4h-8.8V96h8.8V98.4z"></path>
                    </g>
                </svg>